<?xml version="1.0" encoding="utf-8"?>
<!-- Generator: Adobe Illustrator 25.1.0, SVG Export Plug-In . SVG Version: 6.00 Build 0)  -->
<svg version="1.1" id="Layer_1" xmlns="http://www.w3.org/2000/svg" xmlns:xlink="http://www.w3.org/1999/xlink" x="0px" y="0px"
	 viewBox="0 0 705.184 238.486" style="enable-background:new 0 0 705.184 238.486;" xml:space="preserve">
<style type="text/css">
	.st0{fill:#ED791F;}
	.st1{fill:#B6B6B6;}
	.st2{fill:#070707;}
	.st3{fill:#B7B7B7;}
	.st4{fill:#B5B5B5;}
	.st5{fill:#050505;}
	.st6{fill:#B3B3B3;}
	.st7{fill:#B4B4B4;}
	.st8{fill:#0C0C0C;}
	.st9{fill:#1A1A1A;}
	.st10{fill:#1B1B1B;}
	.st11{fill:#131313;}
	.st12{fill:#161616;}
	.st13{fill:#242424;}
	.st14{fill:#191919;}
	.st15{fill:#2A2A2A;}
	.st16{fill:#A6A6A6;}
	.st17{fill:#FAFAFA;}
	.st18{fill:#F8F8F8;}
</style>
<g>
	<path class="st0" d="M118.781,66.811l3.708-0.004c8.841-0.009,15.908-1.034,21.2-3.076c0.932,1.599,1.399,3.256,1.401,4.972
		c0.001,1.28-0.419,2.219-1.262,2.815c-0.843,0.597-2.559,0.897-5.147,0.9l-34.815,0.08c-0.379-0.988-0.569-1.919-0.57-2.792
		c-0.001-0.582,0.152-1.01,0.457-1.287c0.305-0.277,0.807-0.415,1.505-0.416L108.486,68c0.199-4.072,0.29-14.456,0.273-31.151
		c-0.009-8.929-0.132-15.415-0.369-19.458l-4.581,0.005c-0.379-0.988-0.569-1.904-0.57-2.748c-0.001-0.611,0.152-1.054,0.457-1.331
		c0.305-0.277,0.807-0.415,1.505-0.416l18.891-0.02c0.378,0.872,0.569,1.716,0.57,2.53c0.001,0.727-0.145,1.237-0.435,1.527
		c-0.291,0.291-0.814,0.437-1.57,0.438l-3.927,0.004c-0.199,4.043-0.294,10.704-0.285,19.982
		C118.462,53.708,118.574,63.525,118.781,66.811z"/>
	<path class="st0" d="M164.538,15.981c0.004,3.694-1.229,6.989-3.698,9.886c-2.469,2.897-5.362,4.347-8.677,4.35
		c-0.844,0.001-1.484-0.173-1.92-0.522c-0.437-0.349-0.655-0.959-0.656-1.832c-0.001-1.047,0.26-2.065,0.782-3.055
		c1.717,0.493,3.279,0.477,4.69-0.048c1.41-0.525,2.273-2.169,2.591-4.933c-1.455-0.376-2.503-0.964-3.143-1.764
		c-0.641-0.799-0.962-1.766-0.963-2.9c-0.002-1.483,0.513-2.676,1.545-3.579c1.031-0.902,2.391-1.355,4.078-1.357
		c1.686-0.002,3.004,0.462,3.95,1.392C164.061,12.55,164.535,14.003,164.538,15.981z"/>
	<path class="st0" d="M200.28,68.864c-2.442,1.428-4.949,2.514-7.522,3.258c-2.573,0.744-5.097,1.118-7.568,1.12
		c-3.927,0.004-6.851-0.916-8.772-2.761c-1.922-1.845-2.884-4.585-2.888-8.221c-0.005-4.45,1.577-7.855,4.745-10.214
		c3.167-2.359,8.068-3.542,14.699-3.549l6.413-0.007c-0.18-5.119-0.919-8.681-2.214-10.687c-1.296-2.006-3.588-3.007-6.875-3.003
		c-1.745,0.002-3.418,0.178-5.017,0.529c-0.842,1.688-1.343,2.591-1.502,2.707c-0.16,0.117-0.996,0.372-2.508,0.766
		c-1.512,0.394-2.567,0.323-3.163-0.215c-0.597-0.537-1.209-1.518-1.835-2.943c-0.627-1.424-0.941-2.573-0.942-3.446
		c-0.001-0.582,0.239-1.032,0.718-1.353c0.48-0.32,2.435-0.715,5.867-1.184c3.431-0.468,7.082-0.705,10.95-0.709
		c5.148-0.005,8.951,0.878,11.411,2.649c2.46,1.772,3.692,5.029,3.697,9.769l0.014,13.437c0.006,6.224,0.279,10.02,0.819,11.386
		c0.54,1.367,1.434,1.918,2.685,1.655c0.35,0.64,0.525,1.265,0.525,1.875c0.001,0.989-0.616,1.746-1.852,2.271
		c-1.236,0.525-2.9,0.788-4.995,0.79c-1.019,0.001-1.796-0.122-2.334-0.368C202.297,72.171,201.445,70.986,200.28,68.864z
		 M199.392,54.119c-2.502-0.434-5.091-0.649-7.766-0.646c-3.316,0.003-5.635,0.558-6.957,1.665c-1.323,1.107-1.982,2.853-1.98,5.237
		c0.002,2.327,0.593,4.079,1.772,5.255s3.005,1.764,5.477,1.761c1.92-0.002,3.708-0.381,5.365-1.14
		c1.657-0.758,2.753-1.813,3.291-3.166c0.537-1.353,0.804-3.484,0.8-6.392L199.392,54.119z"/>
	<path class="st0" d="M224.384,47.331c-0.013-12.303-0.08-20.134-0.199-23.494c-0.12-3.359-0.333-5.547-0.639-6.565
		c-0.306-1.018-0.809-1.672-1.507-1.962c-0.698-0.29-1.615-0.435-2.749-0.433c-0.379-0.901-0.569-1.788-0.57-2.661
		c-0.001-0.901,0.369-1.469,1.111-1.703c0.741-0.233,3.134-0.352,7.176-0.356c2.297-0.002,3.854,0.105,4.669,0.322
		c0.814,0.217,1.28,0.625,1.397,1.22c0.116,0.596,0.176,1.621,0.178,3.076l0.038,36.517c0.036,6.98,0.158,12.493,0.366,16.535
		l4.843-0.005c0.35,0.756,0.525,1.57,0.526,2.443c0.001,0.785-0.159,1.324-0.478,1.615c-0.32,0.291-0.931,0.437-1.832,0.438
		l-17.364,0.018c-0.379-0.93-0.569-1.803-0.57-2.617c-0.001-0.639,0.158-1.113,0.478-1.418c0.32-0.306,0.843-0.459,1.57-0.46
		l3.228-0.003C224.285,63.794,224.394,56.958,224.384,47.331z"/>
	<path class="st0" d="M250.736,47.303c-0.013-12.303-0.08-20.134-0.199-23.494c-0.12-3.359-0.333-5.547-0.639-6.565
		c-0.306-1.018-0.809-1.672-1.507-1.962c-0.698-0.29-1.615-0.435-2.749-0.433c-0.379-0.901-0.569-1.788-0.57-2.661
		c-0.001-0.901,0.369-1.469,1.111-1.703c0.741-0.233,3.134-0.352,7.176-0.356c2.297-0.002,3.854,0.105,4.669,0.322
		c0.814,0.217,1.28,0.625,1.397,1.22c0.116,0.596,0.176,1.621,0.178,3.076l0.038,36.517c0.036,6.98,0.158,12.493,0.366,16.535
		l4.843-0.005c0.35,0.756,0.525,1.57,0.526,2.443c0.001,0.785-0.159,1.324-0.478,1.615c-0.32,0.291-0.931,0.437-1.832,0.438
		l-17.364,0.018c-0.379-0.93-0.569-1.803-0.57-2.617c-0.001-0.639,0.158-1.113,0.478-1.418c0.32-0.306,0.843-0.459,1.57-0.46
		l3.228-0.003C250.636,63.766,250.746,56.931,250.736,47.303z"/>
	<path class="st0" d="M286.663,67.771l4.625-0.005c0.378,0.756,0.569,1.57,0.57,2.443c0.001,0.785-0.159,1.324-0.478,1.615
		c-0.32,0.291-0.945,0.437-1.876,0.438l-17.146,0.018c-0.35-0.93-0.525-1.803-0.526-2.617c-0.001-0.639,0.152-1.113,0.457-1.418
		c0.305-0.306,0.835-0.459,1.592-0.46l3.228-0.003c0.199-4.042,0.296-8.784,0.291-14.223c-0.007-6.631-0.062-11.06-0.166-13.285
		c-0.105-2.225-0.346-3.758-0.725-4.602c-0.379-0.843-0.911-1.366-1.594-1.569c-0.684-0.202-1.535-0.304-2.553-0.303
		c-0.379-0.61-0.569-1.323-0.569-2.137c-0.001-1.192,0.565-1.92,1.699-2.183s3.33-0.396,6.587-0.399
		c2.297-0.002,3.854,0.105,4.669,0.322c0.814,0.217,1.28,0.625,1.397,1.22c0.116,0.596,0.176,1.621,0.178,3.076l0.021,19.851
		C286.348,58.988,286.455,63.729,286.663,67.771z M280.42,21.619c-1.891,0.002-3.288-0.389-4.19-1.174
		c-0.902-0.784-1.354-1.918-1.356-3.402c0.027-1.599,0.608-2.88,1.741-3.841s2.732-1.443,4.798-1.445
		c2.035-0.002,3.491,0.411,4.364,1.239c0.873,0.828,1.311,1.94,1.312,3.336c0.002,1.571-0.536,2.844-1.61,3.819
		C284.404,21.129,282.717,21.617,280.42,21.619z"/>
	<path class="st0" d="M319.517,28.385c5.41-0.006,9.425,1.271,12.045,3.827c2.62,2.557,3.934,6.773,3.94,12.648
		c0.003,2.589-0.461,4.392-1.39,5.411c-0.93,1.02-2.965,1.53-6.106,1.533l-19.284,0.02c0.063,4.741,1.019,8.463,2.869,11.166
		c1.85,2.703,5.115,4.052,9.799,4.047c4.363-0.005,8.419-1.143,12.169-3.416c1.251,1.249,1.879,2.572,1.88,3.968
		c0.002,1.949-1.604,3.317-4.817,4.106c-3.213,0.789-6.842,1.185-10.884,1.189c-7.446,0.008-12.792-1.564-16.038-4.717
		c-3.247-3.152-4.873-8.465-4.881-15.941c-0.008-7.358,1.811-13.17,5.457-17.435C307.921,30.528,313.002,28.391,319.517,28.385z
		 M317.866,34.233c-2.909,0.003-5.119,1.046-6.628,3.126c-1.51,2.081-2.336,5.332-2.477,9.753l4.494-0.005
		c4.77-0.005,8.02-0.102,9.751-0.294c1.73-0.191,2.733-0.505,3.009-0.941c0.276-0.437,0.413-1.25,0.412-2.444
		c-0.003-2.879-0.732-5.132-2.188-6.76C322.781,35.042,320.658,34.23,317.866,34.233z M312.661,21.76l9.322-13.578
		c3.899,1.189,5.849,2.873,5.851,5.055c0.003,2.734-3.92,6.592-11.768,11.574L312.661,21.76z"/>
	<path class="st0" d="M359.159,12.637c-0.199,4.014-0.289,15.474-0.27,34.379c0.018,17.51,0.131,27.907,0.338,31.194l12.434-0.013
		c0.378,0.785,0.569,1.86,0.571,3.228c0.001,0.931-0.217,1.564-0.652,1.898c-0.436,0.334-1.163,0.503-2.181,0.504l-23.908,0.025
		c-0.35-0.814-0.525-1.556-0.526-2.224c-0.001-0.902,0.209-1.505,0.631-1.811c0.421-0.306,1.053-0.459,1.897-0.46l1.44-0.001
		c0.199-4.043,0.29-15.211,0.271-33.507c-0.02-18.847-0.134-30.292-0.341-34.335l-1.44,0.001c-0.844,0.001-1.477-0.151-1.898-0.456
		c-0.422-0.305-0.634-0.908-0.634-1.81c-0.001-0.669,0.173-1.411,0.521-2.226l23.908-0.025c1.018-0.001,1.745,0.173,2.182,0.521
		c0.437,0.349,0.655,0.974,0.656,1.875c0.001,1.396-0.187,2.472-0.564,3.229L359.159,12.637z"/>
	<path class="st0" d="M401.625,28.299c5.41-0.006,9.425,1.271,12.045,3.827c2.62,2.557,3.933,6.773,3.939,12.648
		c0.003,2.589-0.461,4.392-1.391,5.411c-0.93,1.02-2.965,1.53-6.106,1.533l-19.284,0.02c0.063,4.741,1.019,8.463,2.869,11.166
		c1.85,2.703,5.115,4.052,9.799,4.047c4.363-0.005,8.419-1.143,12.168-3.416c1.252,1.249,1.879,2.572,1.88,3.968
		c0.002,1.949-1.604,3.317-4.816,4.106c-3.213,0.789-6.842,1.185-10.884,1.189c-7.446,0.008-12.792-1.564-16.038-4.717
		c-3.247-3.152-4.873-8.465-4.881-15.941c-0.008-7.358,1.811-13.17,5.457-17.435C390.029,30.443,395.11,28.306,401.625,28.299z
		 M399.974,34.147c-2.909,0.003-5.119,1.046-6.628,3.126c-1.51,2.081-2.336,5.332-2.477,9.753l4.494-0.005
		c4.77-0.005,8.02-0.102,9.751-0.294c1.73-0.191,2.733-0.505,3.009-0.941c0.276-0.437,0.413-1.25,0.412-2.444
		c-0.003-2.879-0.732-5.132-2.188-6.76C404.889,34.957,402.766,34.144,399.974,34.147z"/>
	<path class="st0" d="M439.565,12.554l-12.434,0.013c-0.379-0.756-0.569-1.832-0.57-3.228c-0.001-0.901,0.217-1.527,0.652-1.877
		c0.436-0.349,1.163-0.525,2.181-0.526l23.908-0.025c0.35,0.814,0.525,1.556,0.526,2.224c0.001,0.902-0.209,1.505-0.631,1.811
		s-1.054,0.459-1.897,0.46l-1.44,0.001c-0.199,4.043-0.289,15.488-0.27,34.336c0.019,18.295,0.132,29.463,0.34,33.506l1.44-0.001
		c0.843-0.001,1.476,0.151,1.898,0.456s0.634,0.908,0.634,1.81c0.001,0.669-0.173,1.411-0.521,2.226l-23.908,0.025
		c-1.018,0.001-1.745-0.166-2.182-0.499c-0.437-0.334-0.655-0.966-0.656-1.897c-0.001-1.368,0.187-2.443,0.564-3.229l12.434-0.013
		c0.2-3.287,0.291-13.684,0.273-31.194C439.886,28.027,439.773,16.568,439.565,12.554z"/>
</g>
<g>
	<path class="st1" d="M548.017,39.842l3.856,3.669c1.253,5.738,0.126,11.006-3.05,15.93c-4.951,7.678-8.137,16.096-11.08,24.712
		c-2.796,8.185-8.053,14.543-17.21,16.548c1.95-2.276,4.689-4.141,5.198-7.276c1.782-10.982,6.555-21.138,9.262-26.853
		c0.856-1.807-0.346-6.845-0.999-9.247c-0.211-0.776-0.912-1.317-1.721-1.339c-17.685-0.49-34.563-3.08-50.968-8.119
		c-7.233-2.222-11.334-12.298-9.116-19.507c-0.34,4.85,2.083,7.564,6.436,9.611c10.812,5.085,22.365,6.718,34.034,7.928
		c5.589,0.58,11.215,0.811,16.825,1.201l1.427-1.422L548.017,39.842"/>
	<path class="st1" d="M32.703,236.574c-4.683,3.315-7.655,2.302-8.582-2.912c-0.998-5.611,2.333-9.755,4.9-14.134
		c1.409-2.403,3.012-4.694,4.528-7.035c3.222-6.175,7.407-11.292,14.603-13.101c6.062-0.976,11.297-3.756,16.178-7.309
		c6.701-6.226,15.727-5.468,23.728-7.792c0.445,2.91,2.347,1.959,4.2,1.705c24.796-3.391,48.881-9.501,72.157-18.654
		c20.296-7.981,41.309-12.684,63.113-13.637c4.911-0.214,9.87,0.342,14.789,0.754c3.413,0.286,5.776,1.913,5.674,5.766
		c-15.328,4.989-30.854,8.287-47.167,8.521c-19.449,0.278-37.626,6.64-55.159,14.499c-20.258,9.081-41.674,14.02-63.412,17.219
		c-19.436,2.859-34.357,12.361-46.835,26.645C33.077,229.789,30.793,232.629,32.703,236.574z"/>
	<path class="st1" d="M703.522,149.183c0.426-3.873-2.085-4.055-4.927-3.912c-11.799,0.591-23.566-0.097-35.321-1.001
		c-4.69-0.361-9.75,1.152-13.314-4.067c-1.596-2.337-4.302-0.437-4.448,1.92c-0.33,5.35-4.07,6.842-8.142,8.394
		c-24.621,9.386-49.372,18.355-74.897,25.11c-6.283,1.663-11.482,1.064-16.261-3.458c-1.969-1.863-3.774-4.349-7.068-4.113
		c5.129-5.473,12.28-2.898,18.402-4.324c17.809-4.15,35.907-7.092,53.084-13.672c11.174-4.281,20.633-11.129,29.127-19.331
		c2.83-2.733,5.166-3.815,8.291-0.56c1.083,1.129,2.696,2.23,4.189,2.424c13.43,1.749,26.766,4.857,40.471,3.124
		c0.933-0.118,1.875-0.355,2.801-0.31c4.279,0.207,9.457-2.288,12.403,2.452C711.102,142.993,705.42,145.54,703.522,149.183z"/>
	<path class="st2" d="M32.703,236.574c-5.826,0.145-4.268-3.328-2.434-5.818c9.795-13.3,21.575-24.508,37.991-28.899
		c13.863-3.709,28.13-5.903,42.166-9c13.39-2.955,26.252-7.535,38.733-13.185c18.045-8.168,36.954-12.672,56.812-13.1
		c11.639-0.251,22.962-2.243,33.992-5.97c2.591-0.875,5.254-2.421,8.028-0.375c0.141,4.794-3.795,8.273-4.174,13.08
		c-0.155,1.968-3.236,1.944-4.011-0.443c-0.614-1.891-0.202-4.111-0.258-6.814c-15.643,6.242-31.868,5.686-47.766,7.31
		c-13.304,1.359-25.989,4.975-38.005,10.497c-21.6,9.927-44.238,16.714-67.64,19.712C62.74,206.565,45.846,218.126,32.703,236.574z"
		/>
	<path class="st1" d="M22.717,174.713c8.244-2.209,15.817-6.978,24.841-6.227c6.932,0.577,8.922,3.422,6.551,9.712
		c-3.707-1.697-7.358-1.032-10.962,0.325c-10.116,3.81-18.42,10.215-25.72,17.979c-2.151,2.288-3.988,4.868-1.027,7.926
		c-2.786,2.358-5.878,4.005-9.215,1.413c-3.267-2.537-2.818-6.268-1.54-9.543c1.329-3.406,3.14-6.699,5.22-9.715
		c1.171-1.698,1.905-3.037,0.956-4.938C15.341,179.162,20.378,179.029,22.717,174.713z"/>
	<path class="st3" d="M554.91,109.873c4.176-8.012,10.526-13.433,19.25-16.122c2.735-0.843,5.327-1.084,6.596,1.943
		c1.218,2.906-1.128,4.262-3.287,5.277c-7.192,3.383-10.582,9.867-13.327,16.608c-1.861,4.57-4.9,8.011-8.556,10.913
		c-2.534,2.012-5.824,3.779-8.713,0.343c-2.678-3.183-2.777-6.35,1.049-8.92c1.322,1.632,1.932,5.35,4.862,1.041
		C555.181,117.432,558.636,114.427,554.91,109.873z"/>
	<path class="st4" d="M393.884,139.682c3.305,9.526,10.187,11.945,19.065,14.12c7.276,1.782,11.119-3.153,16.537-4.818
		c1.38-0.424,1.572-2.724,0.116-4.196c-10.072,8.868-18.629,7.502-23.884-2.927c-2.745-5.447-7.048-9.324-11.61-12.984
		c-3.809-3.056-7.963-3.926-11.894,0.094C388.896,129.517,392.172,134.75,393.884,139.682l-3.916,4.7
		c2.032,2.235,2.892,4.069-1.454,4.006l6.632,7.015c6.983,1.137,13.864,2.891,20.784,4.4c1.369,0.298,2.934,0.468,3.575,1.935
		c4.919,11.267,14.977,16.979,24.964,23.355l11.942-1.945c-3.59-1.351-7.158-2.892-10.702-4.634
		c-6.643-3.265-12.616-7.434-17.354-13.104c-1.832-2.192-5.278-4.463-3.173-7.791c2.001-3.163,5.552-2.832,8.833-1.538
		c-5.143,1.704-2.187,3.891-0.326,5.934c8.93,9.799,20.433,15.588,32.753,19.628c17.109,5.611,34.626,5.158,52.175,1.923
		c8.716-1.607,14.288-7.405,19.354-13.949c1.846,6.286,7.894,8.253,12.944,12.271c-7.012,3.571-14.326,5.027-21.569,6.321
		c-25.007,4.468-49.457,3.772-72.936-5.061"/>
	<path class="st5" d="M473.076,46.584c-0.414-0.301-0.825-0.611-1.231-0.943c-1.779-1.897-4.669-5.251-5.49-7.808
		c-0.035-0.11-0.07-0.22-0.103-0.33c-2.801-9.196,1.742-17.574,11.044-20.256c7.346-2.118,14.956-2.678,22.361-1.078
		c19.385,4.191,39.023,5.802,58.768,6.755c10.362,0.5,20.35,2.968,30.154,6.224c0.06,0.02,0.118,0.044,0.175,0.071
		c14.571,7.03,29.731,13.103,41.126,25.256c1.838,1.96,4.337,1.397,6.697,1.128c16.108-1.839,32.643-1.244,47.783-8.589
		c1.879-0.912,5.116-2.224,5.938,1.11c0.719,2.917-2.512,3.364-4.59,4.345c-14.047,6.626-29.226,6.607-44.26,8.066
		c-8.643,0.839-14.608-1.217-21.417-6.853c-17.741-14.684-38.516-23.518-61.856-25.106c-19.791-1.347-39.559-2.451-59.005-6.885
		c-6.656-1.518-13.635-1.099-20.317,1.011c-2.96,0.934-5.619,2.238-6.609,5.471c-0.037,0.122-0.061,0.252-0.07,0.379
		c-0.645,8.556,5.056,16.308,13.929,18.723c11.776,3.206,23.823,5.02,35.923,6.421c7.176,0.831,7.391,0.67,7.454-6.025
		c0.003-0.355,0.14-0.704,0.382-0.964v0c0.54-0.58,1.453-0.604,2.051-0.084c6.911,6.015,10.847-2.926,15.498-6.462
		c0.75-0.57-0.178,0.205,0.607-0.319c2.451-0.102,3.393,1.359,3.801,3.373c0.039,0.194,0.033,0.396-0.009,0.589
		c-0.536,2.421-0.995,4.912-2.994,6.645c-11.441,9.92-15.847,23.46-19.6,37.344c-1.427,5.281-3.092,10.391-8.68,12.909
		c-24.762,9.352-50.508,15.449-75.92,22.653c-0.105,0.03-0.211,0.071-0.308,0.122c-4.107,2.16-4.834,5.283-3.328,9.65
		c1.636,4.743,5.253,4.195,8.647,3.614c6.055-1.035,12.124-1.64,18.24-1.482c5.625,0.145,8.72-2.448,10.039-7.764
		c0.74-2.981,1.245-6.789,5.887-4.756c0.245,0.107,0.468,0.282,0.622,0.501c1.404,1.988,1.643,4.508,0.782,6.339
		c-3.255,6.925,0.104,13.777-0.378,20.623c-0.107,1.521,0.15,2.711,1.814,3.303c6.487,2.306,11.3,8.362,18.946,8.197
		c1.546-0.033,3.182,0.817,4.655,1.514c1.744,0.826,3.241,2.039,2.91,4.296c-0.307,2.097-1.676,3.296-3.681,3.752
		c-4.11,0.933-8.128,2.463-12.466,1.995c-1.403-0.151-2.839-0.576-4.204-0.412c-21.988,2.639-40.586-6.351-58.779-16.765
		c-2.882-1.493-4.462,0.446-5.759,2.403c-1.492,2.252,0.113,4.005,1.552,5.554c4.825,5.193,10.161,9.754,16.688,12.762
		c15.757,7.262,31.97,11.595,49.687,11.793c14.032,0.157,27.651-0.845,41.204-4.07c2.363-0.562,4.725-1.115,6.942-2.072
		c0.903-0.39,1.144-1.552,0.497-2.293c-2.76-3.161-8.062-4.303-7.118-9.481c1.065-1.166,1.89-2.071,2.955-3.237
		c2.745-0.635,4.712,1.594,6.589,3.085c4.895,3.89,9.909,4.321,15.898,2.813c24.759-6.233,48.575-15.16,72.358-24.231
		c3.731-1.423,6.502-3.567,8.129-7.276c1.123-2.559,3.293-4.731,6.111-3.062c9.765,5.783,20.63,3.575,31.019,4.558
		c5.839,0.553,11.786-0.369,17.681-0.086c3.454,0.166,6.469,0.981,5.318,5.181c-0.127,0.462-0.462,0.854-0.909,1.027
		c-8.233,3.176-17.036,2.526-25.106,1.057c-18.656-3.395-34.967,3.099-51.303,9.741c-16.856,6.853-33.855,13.079-51.612,17.224
		c-6.905,1.612-13.09,4.88-19.39,8.238c-14.395,7.673-30.363,9.989-46.535,10.438c-14.893,0.413-29.574-0.526-44.251-4.128
		c-8.972-2.202-18.739-1.078-28.12-1.812c-15.402-1.206-30.029-6.051-44.802-10.081c-3.558-0.971-6.932-3.032-10.043-5.106
		c-7.932-5.286-10.101-10.765-7.952-19.802c0.201-0.845-0.388-1.679-1.25-1.787c-7.431-0.933-12.876,1.429-17.117,8.721
		c-8.393,14.432-23.885,18.165-38.412,23.025c-1.555,0.52-3.385,0.655-4.437-1.09c-1.232-2.042-0.003-3.522,1.396-4.911
		c2.497-2.481,5.078-4.916,6.356-8.678c0.407-1.198-0.824-2.281-1.979-1.767c-7.621,3.391-15.267,3.877-23.087,3.218
		c-1.881-0.159-4.703,0.038-5.023-1.792c-1.54-8.812-8.981-5.324-13.689-6.238c-6.733-1.307-13.871-0.326-19.511,4.236
		c-3.893,3.149-3.096,8.053-3.147,12.503c-0.027,2.354,1.278,6.043-2.583,6.034c-3.536-0.008-2.723-3.766-3-6.138
		c-0.606-5.2,0.494-10.153,2.68-14.883c0.043-0.093,0.096-0.184,0.154-0.268c6.855-9.723,17.136-9.325,27.34-8.892
		c3.521,0.149,7.009,1.174,10.563,0.365c4.895-1.115,8.965-0.713,10.579,5.064c0.729,2.61,2.976,2.672,5.199,2.404
		c4.735-0.57,9.309-1.449,12.988-4.924c2.021-1.908,4.294-4.215,7.442-2.391c3.169,1.836,3.998,5.029,4.021,8.491
		c0.011,1.696-0.582,3.274-1.018,5.292c-0.249,1.15,0.91,2.1,1.989,1.629c7.032-3.067,13.966-5.588,17.777-12.339
		c7.07-12.525,17.573-15.921,31.153-13.634c3.323,0.559,7.527,2.294,10.36-1.384c0.309-0.402,0.417-0.941,0.244-1.417
		c-1.292-3.553-3.767-6.324-6.394-8.95c-1.684-1.684-3.434-3.185-1.344-5.51c0.142-0.158,0.327-0.294,0.52-0.384
		c3.224-1.507,5.641,0.008,7.801,2.323c2.256,2.416,4.652,4.992,5.575,8.055c3.197,10.609,12.074,12.025,21.014,13.359
		c3.935,0.587,10.46-3.401,12.359-6.982c0.243-0.458,0.205-1.017-0.078-1.452c-3.542-5.445-7.736-10.046-14.482-11.347
		c-0.653-0.126-1.165-0.654-1.211-1.318c-0.283-4.019,1.763-5.287,6.509-4.207c3.246,0.739,5.539,3.113,8.2,5.085
		c1.08,0.801,2.588-0.235,2.234-1.532c-0.501-1.836-1.637-3.373-1.483-5.15c0.021-0.244,0.008-0.495-0.08-0.725
		c-1.928-5.033-5.813-8.493-9.771-11.895c-0.178-0.153-0.397-0.251-0.625-0.307c-4.193-1.026-3.661-6.155-6.785-8.109
		c-0.1-0.062-0.21-0.112-0.321-0.151c-16.899-5.965-34.369-6.471-51.559-2.854c-40.522,8.526-80.599,6.81-120.843-1.788
		c-29.298-6.26-59.23-4.715-88.964-4.998c-19.374-0.184-38.746-0.219-57.945-3.229c-2.989-0.469-6.04-1.291-8.747-2.593
		c-3.054-1.469-3.424-3.612-0.25-5.468c0.145-0.085,0.31-0.146,0.475-0.178c1.538-0.301,3.076-0.46,4.648-0.16
		c20.193,3.846,40.621,3.184,61.041,3.846c21.344,0.692,42.757-1.177,64.033,1.524c14.662,1.44,29.173,3.913,43.666,6.518
		c15.506,2.946,31.13,4.888,46.918,5.355c13.733,0.406,27.15-2.374,40.62-4.369c18.885-2.797,37.666-6.414,56.831-2.163
		c5.533,1.227,11.051,2.392,16.322,4.474c5.709,1.676,10.341,4.045,10.912,11.12c0.337,4.174,3.838,6.239,8.055,6.568
		c2.124,0.166,4.306,0.244,6.349-0.318c22.948-6.306,46.358-11.056,68.476-20.164c4.936-2.032,11.478-7.399,12.644-12.826
		c0.981-4.567,2.175-9.124,3.706-13.571c2.72-7.9-1.034-10.032-9.51-11.726c-10.323-2.064-28.796-4.244-40.85-8.577
		C475.848,48.34,474.404,47.549,473.076,46.584z"/>
	<path class="st6" d="M484.168,122.911c-3.3-0.576-4.319,0.565-4.551,4.088c-0.522,7.902-2.96,9.659-10.978,10.058
		c-8.23,0.409-16.444,1.128-24.668,1.662c-3.084,0.2-5.845,0.102-4.684-4.416c0.964-3.75-2.5-6.351-3.261-10.208
		c2.944-0.243,5.687-0.469,8.429-0.696c4.821,10.587,21.149,11.787,30.787,2.298C477.702,123.275,479.67,119.01,484.168,122.911z"/>
	<path class="st7" d="M388.513,148.387c-6.83-0.099-13.659-0.308-20.489-0.314c-6.945-0.006-11.92,3.233-15.692,9.046
		c-7.047,10.858-13.726,15.269-28.316,19.232c2.266-4.8,4.196-9.305,3.03-14.267c-0.422-1.796-0.566-3.872-2.738-4.58
		c-2.25-0.733-3.527,0.798-4.644,2.352c-5.023,6.991-12.651,6.263-19.894,6.664c-2.689,0.149-2.851-1.12-2.478-3.515
		c0.847-5.434-1.94-7.049-6.663-4.835c-3.301,1.547-6.36,0.995-9.651,0.481c-10.892-1.7-21.197-0.626-29.976,6.879
		c1.054-4.702,5.277-8.022,5.744-12.979c5.063-1.28,10.865,1.293,15.367-2.911c5.127-1.034,10.042,1.433,15.395,0.267
		c12.447-2.712,15.64,0.179,15.615,12.987c5.78-2.903,11.557-5.393,16.222-9.799c7.01-6.622,10.868-5.595,13.716,3.669
		c0.344,1.118,0.42,2.308,1.632,2.915c1.191,2.563-1.991,4.022-1.662,6.39c4.953-3.061,5.623-4.212,7.023-12.023
		c6.994-3.116,13.618-6.857,20.984-9.392c9.893-3.405,19.274-2.386,28.929-0.273"/>
	<path class="st6" d="M428.998,125.285c0.351,0.277,0.902,0.487,1.021,0.841c1.109,3.306,6.112,6.811,2.615,9.735
		c-3.044,2.545-5.195-2.87-7.754-4.638c-6.498-4.489-9.681-4.272-11.262,1.381c-3.798,0.484-7.013-0.878-7.065-4.768
		c-0.058-4.353,3.904-5.388,7.514-5.7C419.318,121.682,423.873,124.892,428.998,125.285z"/>
	<g>
		<path class="st8" d="M16.399,204.43c-4.38,0.676-5.539-1.591-3.265-4.701c9.245-12.638,20.988-21.849,36.911-24.78
			c2.552-0.47,4.122,0.425,4.063,3.25c-9.706,3.407-19.241,7.035-26.916,14.323C23.277,196.241,19.303,199.838,16.399,204.43z"/>
		<path class="st9" d="M88.057,184.292c-3.505,4.456-9.124,2.992-13.606,4.743c-3.27,1.278-6.74,2.051-10.122,3.049
			c-1.98-1.924-1.84-4.115,0.504-5.122c6.455-2.774,13.227-4.659,20.28-5.205C86.607,181.641,87.673,182.758,88.057,184.292z"/>
		<path class="st10" d="M48.151,199.392c-6.335,2.755-9.381,9.123-14.603,13.101c-2.502-0.642-4.007-2.074-2.23-4.486
			c3.479-4.721,7.445-9.171,12.521-12.146C46.739,194.161,48.733,195.756,48.151,199.392z"/>
		<path class="st11" d="M554.764,110.083c0.09-0.128,0.248-0.195,0.403-0.169c4.271,0.711,5.37,2.901,2.83,6.662
			c-1.441,2.133-2.899,4.276-4.565,6.233c-1.396,1.64-2.36,4.879-5.292,3.36c-2.925-1.515,0.029-3.992-0.189-6.066
			c-0.013-0.121,0.006-0.242,0.071-0.345C550.053,116.502,552.511,113.307,554.764,110.083z"/>
		<path class="st12" d="M340.054,154.046c2.193,4.333-2.602,14.813-7.175,15.51c-0.808,0.123-1.883-0.188-2.543-0.682
			c-1.149-0.861-0.681-2.067-0.124-3.138c1.172-2.252,4.095-3.229,4.48-6.056C336.584,157.9,336.709,154.463,340.054,154.046z"/>
		<path class="st13" d="M517.683,105.5c0.175-0.051,0.365-0.053,0.537,0.007c2.878,1.011,3.144,4.133,4.59,6.271
			c1.242,1.836,3.188,3.659,1.973,6.303c-0.174,0.38-0.626,0.794-1.023,0.888c-3.567,0.849-4.463-2.16-5.425-4.277
			c-1.227-2.699-4.727-5.18-1.763-8.745C516.784,105.694,517.229,105.631,517.683,105.5z"/>
		<path class="st9" d="M272.113,149.641c0.104,1.336,0.485,3.489-0.976,3.534c-4.789,0.148-9.777,3.032-14.392-0.623
			C260.794,145.983,266.496,148.033,272.113,149.641z"/>
		<path class="st14" d="M22.717,174.713c2.591,4.199-1.066,4.406-3.498,5.544c-2.374,1.111-4.698,2.141-7.398,1.39
			C12.06,174.079,17.83,175.081,22.717,174.713z"/>
		<path class="st15" d="M531.679,144.579c-0.168,2.5,1.091,5.275-2.305,5.356c-2.703,0.065-3.381-2.214-3.349-4.435
			c0.031-2.16,0.59-4.559,3.137-4.792C532.741,140.382,531.411,143.322,531.679,144.579z"/>
	</g>
	<path class="st1" d="M411.535,104.531c2.618,0.85,7.111-0.127,4.814,5.339c-0.623,1.483,1.722,1.858,2.477,2.936
		c-0.226,0.044-0.45,0.12-0.677,0.128C408.492,113.253,408.392,113.125,411.535,104.531z"/>
	<path class="st4" d="M444.468,185.092c-18.679-1.143-36.817-5.275-54.297-11.812c-8.748-3.271-13.769-9.937-11.51-14.021
		c3.767-6.812,10.568-4.82,16.485-3.857"/>
	<path class="st7" d="M459.211,157.551c-7.868,3.159-13.774-3.651-20.955-5.963c-3.335-1.073-2.097-3.852-2.042-5.938
		c0.073-2.786,2.407-1.359,3.805-1.456c10.12-0.705,20.252-1.249,30.362-2.067c3.885-0.314,7.336-1.299,7.943,4.561
		c0.521,5.03-0.887,8.191-5.674,9.798C468.545,157.866,464.295,157.81,459.211,157.551z"/>
	<path class="st16" d="M494.536,167.681c-11.711-2.483-23.1,0.912-33.488-4.14C471.848,165.603,484.193,152.673,494.536,167.681z"/>
	<path class="st17" d="M403.384,169.706c-6.21,0.148-12.033-1.343-17.572-4.063c-2.042-1.003-3.612-2.644-3.468-4.833
		c0.141-2.143,2.516-2.788,4.215-3.129c9.122-1.829,17.735,0.33,25.75,4.452c3.477,1.788,2.499,4.545-0.678,6.314
		C409.062,169.877,406.184,169.589,403.384,169.706z"/>
	<path class="st18" d="M465.34,144.343c2.062,0.226,7.919-1.266,8.414,2.519c0.561,4.288-5.373,4.769-9.071,5.694
		c-4.299,1.075-8.663,2.687-13.181,1.275c-1.676-0.524-4.214-0.176-4.685-2.451c-0.484-2.34,1.913-2.944,3.415-3.904
		C454.354,144.839,458.986,144.158,465.34,144.343z"/>
	<path class="st6" d="M535.937,64.789"/>
</g>
</svg>
